<svg preserveAspectRatio="none" width="70" height="87" viewBox="0 0 70 87" fill="none" xmlns="http://www.w3.org/2000/svg">
<path d="M30.1626 18.5037C31.4646 13.5233 38.5354 13.5233 39.8374 18.5037L41.8815 26.3224C42.4567 28.5228 44.4445 30.0578 46.7189 30.0578L55.2892 30.0578C59.8676 30.0578 62.0382 35.7003 58.6402 38.7687L49.9694 46.5983C48.584 47.8493 48.0108 49.7679 48.4829 51.5739L51.3394 62.5002C52.5955 67.3049 46.8369 70.8041 43.151 67.4758L38.3509 63.1414C36.4476 61.4227 33.5524 61.4227 31.6491 63.1414L26.849 67.4758C23.1631 70.8041 17.4045 67.3049 18.6606 62.5002L21.5171 51.5739C21.9892 49.7679 21.416 47.8493 20.0306 46.5983L11.3598 38.7687C7.96179 35.7003 10.1324 30.0578 14.7108 30.0578L23.2811 30.0578C25.5555 30.0578 27.5433 28.5228 28.1185 26.3224L30.1626 18.5037Z" fill="#ADAB9E"/>
</svg>
