<svg preserveAspectRatio="none" width="18" height="13" viewBox="0 0 18 13" fill="none" xmlns="http://www.w3.org/2000/svg">
<path d="M7.16727 2.58621L5.7088 3.62069H2.91697V9.82759H14.5848V3.62069H11.7929L10.3345 2.58621H7.16727ZM6.56315 1.55173H10.9386L12.397 2.58621H15.314C15.7167 2.58621 16.0432 2.81779 16.0432 3.10345V10.3448C16.0432 10.6305 15.7167 10.8621 15.314 10.8621H2.18773C1.78499 10.8621 1.4585 10.6305 1.4585 10.3448V3.10345C1.4585 2.81779 1.78499 2.58621 2.18773 2.58621H5.10468L6.56315 1.55173ZM8.75086 9.31035C6.53575 9.31035 4.74006 8.03669 4.74006 6.46552C4.74006 4.89437 6.53575 3.62069 8.75086 3.62069C10.966 3.62069 12.7617 4.89437 12.7617 6.46552C12.7617 8.03669 10.966 9.31035 8.75086 9.31035ZM8.75086 8.27587C10.1605 8.27587 11.3032 7.46535 11.3032 6.46552C11.3032 5.46569 10.1605 4.65518 8.75086 4.65518C7.34125 4.65518 6.19853 5.46569 6.19853 6.46552C6.19853 7.46535 7.34125 8.27587 8.75086 8.27587Z" fill="#858585"/>
</svg>
