<svg preserveAspectRatio="none" width="24" height="21" viewBox="0 0 24 21" fill="none" xmlns="http://www.w3.org/2000/svg">
<path d="M11.667 2.58608C10.0559 2.58608 8.74997 3.74396 8.74997 5.17228V8.62056C8.74997 10.0489 10.0559 11.2068 11.667 11.2068C13.2779 11.2068 14.5839 10.0489 14.5839 8.62056V5.17228C14.5839 3.74396 13.2779 2.58608 11.667 2.58608ZM11.667 0.861938C14.3519 0.861938 16.5285 2.79175 16.5285 5.17228V8.62056C16.5285 11.0011 14.3519 12.9309 11.667 12.9309C8.98193 12.9309 6.80533 11.0011 6.80533 8.62056V5.17228C6.80533 2.79175 8.98193 0.861938 11.667 0.861938ZM2.96948 9.48263H4.92963C5.40143 12.407 8.23807 14.655 11.667 14.655C15.0957 14.655 17.9324 12.407 18.4042 9.48263H20.3643C19.916 13.0788 16.6954 15.9343 12.6393 16.3319V19.8275H10.6946V16.3319C6.63847 15.9343 3.41787 13.0788 2.96948 9.48263Z" fill="white"/>
</svg>
