<svg preserveAspectRatio="none" width="31" height="28" viewBox="0 0 31 28" fill="none" xmlns="http://www.w3.org/2000/svg">
<g clip-path="url(#clip0_72_417)">
<path d="M20.0214 12.8326C21.0915 12.8326 21.9589 12.0491 21.9589 11.0826C21.9589 10.1161 21.0915 9.33258 20.0214 9.33258C18.9514 9.33258 18.0839 10.1161 18.0839 11.0826C18.0839 12.0491 18.9514 12.8326 20.0214 12.8326Z" fill="#858585"/>
<path d="M10.9798 12.8326C12.0498 12.8326 12.9173 12.0491 12.9173 11.0826C12.9173 10.1161 12.0498 9.33258 10.9798 9.33258C9.90973 9.33258 9.04228 10.1161 9.04228 11.0826C9.04228 12.0491 9.90973 12.8326 10.9798 12.8326Z" fill="#858585"/>
<path d="M15.4877 2.33265C8.3577 2.33265 2.58395 7.55932 2.58395 13.9993C2.58395 20.4393 8.3577 25.666 15.4877 25.666C22.6306 25.666 28.4173 20.4393 28.4173 13.9993C28.4173 7.55932 22.6306 2.33265 15.4877 2.33265ZM15.5006 23.3326C9.79145 23.3326 5.16728 19.156 5.16728 13.9993C5.16728 8.84265 9.79145 4.66598 15.5006 4.66598C21.2098 4.66598 25.8339 8.84265 25.8339 13.9993C25.8339 19.156 21.2098 23.3326 15.5006 23.3326ZM9.04228 16.3326C10.0498 19.0626 12.5556 20.9993 15.5006 20.9993C18.4456 20.9993 20.9514 19.0626 21.9589 16.3326H9.04228Z" fill="#858585"/>
</g>
<defs>
<clipPath id="clip0_72_417">
<rect width="31" height="28" fill="white"/>
</clipPath>
</defs>
</svg>
